<svg width="177" height="189" viewBox="0 0 177 189" fill="none" xmlns="http://www.w3.org/2000/svg">
<path d="M147.5 189H29.5C19.706 189 11.8 181.086 11.8 171.281V17.7188C11.8 7.91438 19.706 0 29.5 0H113.162C117.882 0 122.366 1.89 125.67 5.1975L160.008 39.5719C163.312 42.8794 165.2 47.3681 165.2 52.0931V171.281C165.2 181.086 157.294 189 147.5 189ZM29.5 11.8125C26.196 11.8125 23.6 14.4112 23.6 17.7188V171.281C23.6 174.589 26.196 177.188 29.5 177.188H147.5C150.804 177.188 153.4 174.589 153.4 171.281V52.0931C153.409 51.3185 153.257 50.5505 152.952 49.8385C152.647 49.1264 152.197 48.4861 151.63 47.9587L117.292 13.5844C116.203 12.4716 114.718 11.8347 113.162 11.8125H29.5Z" fill="black" fill-opacity="0.53"/>
<path d="M152.784 63.645H118.446C108.888 63.645 101.1 55.8488 101.1 46.2806V11.9063C101.1 8.59877 103.696 6.00002 107 6.00002C110.304 6.00002 112.9 8.59877 112.9 11.9063V46.2806C112.9 49.3519 115.378 51.8325 118.446 51.8325H152.784C156.088 51.8325 158.684 54.4313 158.684 57.7388C158.684 61.0463 156.088 63.645 152.784 63.645Z" fill="black" fill-opacity="0.41"/>
<path d="M34.0625 128V82.5H61.135L67.83 89.195V121.305L61.135 128H34.0625ZM43.26 118.802H56.6825L58.665 116.82V93.68L56.6825 91.6975H43.26V118.802ZM38.5475 123.612H58.795L63.475 118.932V91.5675L58.795 86.8875H38.5475V123.612ZM39.0025 123.157V87.3425H58.6325L63.02 91.6975V118.802L58.6325 123.157H39.0025ZM111.06 128V82.5H138.067L144.762 89.195V107.102L137.45 114.415H120.257V128H111.06ZM115.382 123.938H115.837V109.865H135.532L140.635 104.762V91.3075L136.117 86.79H115.382V123.938ZM120.257 105.217H132.965L135.597 102.617V93.68L133.615 91.6975H120.257V105.217ZM115.837 109.41V87.245H135.955L140.18 91.4375V104.632L135.37 109.41H115.837Z" fill="#3E4A92"/>
<path d="M74.332 128V109.247L81.027 102.552H93.4095L95.392 100.57V93.68L93.4095 91.6975H85.4795L83.497 93.68V98.3275H74.332V89.195L81.027 82.5H97.862L104.557 89.195V105.055L97.862 111.75H85.4795L83.497 113.732V118.802H104.557V128H74.332ZM78.882 123.645H99.942V123.19H79.337V111.457L83.7245 107.102H95.717L100.235 102.455V91.1775L95.6195 86.725H83.5295L78.882 91.1775V94.135H79.337V91.3075L83.692 87.18H95.457L99.7795 91.3075V102.325L95.5545 106.647H83.562L78.882 111.327V123.645Z" fill="black" fill-opacity="0.74"/>
</svg>
